<?xml version="1.0" standalone="no"?>
<!DOCTYPE svg PUBLIC "-//W3C//DTD SVG 20010904//EN"
 "http://www.w3.org/TR/2001/REC-SVG-20010904/DTD/svg10.dtd">
<svg version="1.0" xmlns="http://www.w3.org/2000/svg"
 width="91.000000pt" height="91.000000pt" viewBox="0 0 91.000000 91.000000"
 preserveAspectRatio="xMidYMid meet">
<metadata>
Created by potrace 1.14, written by Peter Selinger 2001-2017
</metadata>
<g transform="translate(0.000000,91.000000) scale(0.100000,-0.100000)"
fill="#000000" stroke="none">
<path d="M395 855 c-22 -8 -93 -30 -158 -50 l-118 -36 6 -47 c4 -26 9 -55 12
-65 3 -13 -2 -20 -16 -24 -27 -7 -26 -22 4 -127 49 -168 142 -316 262 -418 68
-57 67 -57 173 51 110 113 193 267 223 416 13 67 13 70 -5 73 -17 3 -19 11
-16 74 l3 70 -160 49 c-88 27 -162 49 -165 48 -3 0 -23 -7 -45 -14z m138 -70
c51 -15 57 -19 57 -43 0 -19 -8 -32 -27 -44 -23 -13 -27 -24 -30 -68 -3 -47 0
-54 29 -81 l32 -29 -34 0 c-58 0 -81 10 -75 31 3 10 1 28 -5 39 -8 16 -8 25 0
35 14 17 -12 100 -31 100 -8 0 -17 4 -20 9 -4 5 -14 6 -23 3 -23 -9 -20 -52 6
-69 20 -13 21 -17 9 -46 -10 -24 -11 -35 -2 -46 26 -31 -17 -66 -80 -66 -37 0
-37 13 1 40 36 25 38 54 10 105 -11 19 -16 35 -12 35 4 0 0 6 -9 13 -9 7 -18
24 -21 39 -5 26 -2 27 66 46 39 11 78 19 86 17 8 -2 41 -11 73 -20z m-103 -91
c0 -8 -4 -14 -10 -14 -5 0 -10 9 -10 21 0 11 5 17 10 14 6 -3 10 -13 10 -21z
m184 -10 c3 -8 10 -12 16 -9 15 9 13 -98 -2 -113 -19 -19 -56 -14 -71 11 -16
26 -14 103 2 99 6 -1 14 5 17 13 8 20 30 19 38 -1z m-276 -35 c29 -54 28 -71
-6 -91 -25 -15 -29 -15 -55 0 -15 9 -27 24 -27 33 0 24 42 99 55 99 6 0 21
-18 33 -41z m113 -42 c-15 -22 -21 -27 -21 -14 0 23 33 74 38 58 2 -6 -6 -26
-17 -44z m19 -45 c0 -9 -9 -23 -21 -30 -21 -13 -21 -13 -3 17 21 36 24 37 24
13z m89 -128 c28 -6 31 -10 31 -43 0 -46 -65 -150 -83 -132 -15 15 -60 14 -55
-1 3 -7 14 -14 26 -16 29 -4 28 -16 -5 -42 l-26 -21 -34 33 c-19 18 -50 56
-69 84 -28 41 -35 59 -32 90 3 35 6 39 33 41 40 4 94 -39 77 -60 -9 -10 -9
-21 0 -45 16 -41 25 -40 33 1 4 17 12 37 17 44 5 7 8 18 6 25 -5 13 21 46 38
47 6 1 26 -2 43 -5z m118 -47 c0 -8 -6 -14 -14 -14 -9 0 -10 4 -2 14 6 7 12
13 14 13 1 0 2 -6 2 -13z m-224 -21 c-10 -13 -19 -23 -21 -21 -5 5 22 45 31
45 4 0 0 -11 -10 -24z m116 -176 c-7 -5 -19 -6 -26 -3 -11 5 -12 8 -2 13 7 5
19 6 26 3 11 -5 12 -8 2 -13z m-169 -36 c0 -8 -19 -13 -24 -6 -3 5 1 9 9 9 8
0 15 -2 15 -3z"/>
<path d="M390 255 c0 -10 10 -15 30 -15 22 0 28 4 24 15 -4 8 -17 15 -30 15
-15 0 -24 -6 -24 -15z"/>
</g>
</svg>
